<?xml version="1.0" encoding="UTF-8"?>
<svg width="1200" height="700" viewBox="0 0 1200 700" fill="none" xmlns="http://www.w3.org/2000/svg">
  <defs>
    <linearGradient id="champ-bg" x1="0" y1="0" x2="1" y2="1">
      <stop offset="0%" stop-color="#03181B"/>
      <stop offset="60%" stop-color="#262406"/>
      <stop offset="100%" stop-color="#443401"/>
    </linearGradient>
    <radialGradient id="champ-glow" cx="0.5" cy="0.4" r="0.65">
      <stop offset="0%" stop-color="rgba(247,208,96,0.28)"/>
      <stop offset="100%" stop-color="rgba(247,208,96,0)"/>
    </radialGradient>
    <linearGradient id="champ-trophy" x1="0" y1="0" x2="0" y2="1">
      <stop offset="0%" stop-color="#FFE59D"/>
      <stop offset="45%" stop-color="#E5B741"/>
      <stop offset="100%" stop-color="#C88718"/>
    </linearGradient>
    <linearGradient id="champ-base" x1="0" y1="0" x2="1" y2="0">
      <stop offset="0%" stop-color="#B87515"/>
      <stop offset="100%" stop-color="#F7D060"/>
    </linearGradient>
    <linearGradient id="champ-ribbon" x1="0" y1="0" x2="1" y2="1">
      <stop offset="0%" stop-color="#037B90"/>
      <stop offset="100%" stop-color="#03A9A6"/>
    </linearGradient>
    <filter id="champ-shadow" x="360" y="20" width="780" height="660" filterUnits="userSpaceOnUse" color-interpolation-filters="sRGB">
      <feFlood flood-opacity="0" result="BackgroundImageFix"/>
      <feGaussianBlur in="BackgroundImageFix" stdDeviation="18"/>
      <feComposite in2="SourceAlpha" operator="in" result="effect1_backgroundBlur"/>
      <feBlend in="SourceGraphic" in2="effect1_backgroundBlur" mode="normal" result="shape"/>
      <feDropShadow dx="0" dy="26" stdDeviation="36" flood-color="rgba(0,0,0,0.32)"/>
    </filter>
    <pattern id="champ-stars" width="68" height="68" patternUnits="userSpaceOnUse" patternTransform="rotate(18)">
      <path d="M12 0L16 12L28 16L16 20L12 32L8 20L-4 16L8 12L12 0Z" fill="rgba(247,208,96,0.12)"/>
    </pattern>
  </defs>
  <rect width="1200" height="700" rx="38" fill="url(#champ-bg)"/>
  <rect width="1200" height="700" rx="38" fill="url(#champ-glow)"/>
  <rect width="1200" height="700" rx="38" fill="url(#champ-stars)" opacity="0.22"/>
  <g filter="url(#champ-shadow)">
    <path d="M762 120C762 108 752 98 740 98H684C672 98 662 108 662 120V210C662 286 718 350 794 370C870 350 926 286 926 210V120C926 108 916 98 904 98H848C836 98 826 108 826 120C826 132 836 142 848 142H880V206C880 264 838 316 780 328C722 316 680 264 680 206V142H712C724 142 734 132 734 120Z" fill="url(#champ-trophy)"/>
    <path d="M742 368L768 460L794 368L820 460L846 368" stroke="url(#champ-ribbon)" stroke-width="18" stroke-linecap="round" stroke-linejoin="round"/>
    <path d="M700 500H888L860 620H728L700 500Z" fill="url(#champ-base)"/>
    <path d="M712 548H876L864 596H724L712 548Z" fill="rgba(0,0,0,0.22)" opacity="0.35"/>
    <circle cx="794" cy="288" r="78" fill="url(#champ-ribbon)" opacity="0.16"/>
    <path d="M794 214C840 214 878 252 878 298C878 344 840 382 794 382C748 382 710 344 710 298C710 252 748 214 794 214Z" stroke="rgba(255,255,255,0.28)" stroke-width="4" stroke-dasharray="18 16"/>
  </g>
  <g opacity="0.28">
    <path d="M220 212C300 142 420 142 500 212" stroke="rgba(247,208,96,0.2)" stroke-width="2" fill="none"/>
    <path d="M246 274C316 218 404 218 474 274" stroke="rgba(3,123,144,0.18)" stroke-width="2" fill="none"/>
    <path d="M276 336C336 288 384 288 444 336" stroke="rgba(255,255,255,0.12)" stroke-width="2" fill="none"/>
    <circle cx="360" cy="456" r="130" stroke="rgba(247,208,96,0.2)" stroke-width="2" fill="none"/>
  </g>
  <g opacity="0.32">
    <path d="M1020 520C950 588 830 588 760 520" stroke="rgba(247,208,96,0.24)" stroke-width="2" fill="none"/>
    <path d="M980 458C910 518 830 518 760 458" stroke="rgba(3,123,144,0.2)" stroke-width="2" fill="none"/>
    <path d="M940 396C880 446 832 446 772 396" stroke="rgba(255,255,255,0.12)" stroke-width="2" fill="none"/>
  </g>
</svg>
